<svg xmlns="http://www.w3.org/2000/svg" width="1441" height="487" viewBox="0 0 1441 487" fill="none"><rect x="0.492188" y="0.708008" width="1440" height="486" fill="#3843D0"></rect><mask id="mask0_1049_104171" style="mask-type:alpha" maskUnits="userSpaceOnUse" x="0" y="0" width="1441" height="487"><rect x="0.492188" y="0.708008" width="1440" height="486" fill="#6069D9"></rect></mask><g mask="url(#mask0_1049_104171)"><path d="M1300.78 263.987H1265.54C1241.72 263.987 1221.56 248.09 1215.11 226.371H1349.91C1380.37 226.371 1405.07 201.707 1405.07 171.275V125.583C1405.07 95.1511 1380.37 70.487 1349.91 70.487H1338.85C1338.26 64.159 1332.94 59.1932 1326.44 59.1932C1319.94 59.1932 1314.61 64.148 1314.02 70.487H1290.29C1270.07 70.487 1253.67 54.1066 1253.67 33.9029C1253.67 13.6992 1270.07 -2.68124 1290.29 -2.68124H1370.16C1370.44 3.94346 1375.9 9.22784 1382.6 9.22784C1389.29 9.22784 1395.07 3.64683 1395.07 -3.23055C1395.07 -10.1079 1389.48 -15.6889 1382.6 -15.6889C1375.71 -15.6889 1370.44 -10.4046 1370.16 -3.77986H1290.29C1269.46 -3.77986 1252.57 13.095 1252.57 33.9029C1252.57 54.7108 1269.46 71.5857 1290.29 71.5857H1313.96C1313.96 71.5857 1313.96 71.6296 1313.96 71.6516C1313.96 78.5289 1319.55 84.11 1326.44 84.11C1333.32 84.11 1338.91 78.5289 1338.91 71.6516C1338.91 71.6296 1338.91 71.6076 1338.91 71.5857H1349.91C1379.77 71.5857 1403.97 95.7663 1403.97 125.583V171.275C1403.97 201.091 1379.76 225.272 1349.91 225.272H1214.8C1213.59 220.856 1212.93 216.219 1212.93 211.429V160.288C1217.03 177.163 1232.25 189.688 1250.4 189.688C1268.55 189.688 1283.76 177.163 1287.87 160.31V171.791C1287.87 181.69 1295.9 189.699 1305.8 189.699H1347.09C1356.99 189.699 1365.02 181.69 1365.02 171.791V130.549C1365.02 120.661 1356.99 112.641 1347.09 112.641H1305.8C1295.9 112.641 1287.87 120.661 1287.87 130.549V142.029C1283.76 125.165 1268.55 112.641 1250.4 112.641C1232.25 112.641 1217.03 125.176 1212.93 142.04V-37.5405H1414.83V-38.6392H1212.93V-57.8431H1414.83V-58.9417H1212.93V-78.1456H1414.83V-79.2443H1212.93V-98.4592H1414.83V-99.5578H1212.93V-117.202H1414.83V-118.3H867.941V-117.751H867.336V234.138C867.336 263.713 891.423 287.784 921.043 287.784H956.283C1029.88 287.784 1089.78 347.428 1090.06 420.882H1070.88C1070.58 358.019 1019.28 306.966 956.283 306.966H921.043C880.831 306.966 848.132 274.282 848.132 234.138V-117.751H847.032V234.138C847.032 274.886 880.226 308.064 921.043 308.064H956.283C1018.68 308.064 1069.47 358.634 1069.78 420.882H1050.58C1050.28 369.104 1008.19 327.235 956.283 327.235H921.043C869.569 327.235 827.839 285.553 827.839 234.138V-117.751H826.739V234.138C826.739 286.158 868.964 328.334 921.043 328.334H956.283C1007.58 328.334 1049.18 369.719 1049.48 420.882H1030.27C1029.97 380.376 996.913 347.505 956.283 347.505H921.043C858.46 347.505 807.546 296.639 807.546 234.138V-117.751H806.556V234.138H806.446C806.446 297.243 857.855 348.603 921.043 348.603H956.283C996.297 348.603 1028.88 380.98 1029.17 420.882H1009.98C1009.68 391.549 985.727 367.774 956.283 367.774H921.043C847.263 367.785 787.243 307.822 787.243 234.138V-117.751H787.166V-118.3H431.608C357.223 -118.3 296.707 -58.1727 296.718 16.1272V51.3271C296.718 80.1329 273.412 103.578 244.639 103.863V82.6598C263.106 79.8034 277.25 63.8514 277.25 44.5925C277.25 23.3122 259.982 6.0638 238.689 6.0638H203.987V-29.8392H238.689C259.982 -29.8392 277.25 -47.0876 277.25 -68.3679C277.25 -89.6482 259.982 -106.897 238.689 -106.897H124.895C106.747 -106.897 91.5248 -94.3723 87.4222 -77.4974V-106.347H86.3223V82.5719H87.4222V53.722C91.5248 70.5859 106.747 83.1212 124.895 83.1212H162.225V185.051C141.514 184.832 124.796 168.001 124.796 147.27C124.796 126.539 107.363 108.379 85.8604 108.379H75.1586C47.7386 108.379 25.51 130.582 25.51 157.959V290.838H5.54719C5.25022 290.838 4.99725 291.079 4.99725 291.387V448.435C4.99725 448.732 5.25022 448.985 5.54719 448.985H28.4687V449.083H266.835C296.443 449.083 320.542 425.024 320.542 395.438V360.238C320.542 286.542 380.551 226.601 454.331 226.601H627.683V245.75H454.342C391.154 245.75 339.746 297.111 339.746 360.216V395.427C339.746 435.581 307.024 468.254 266.835 468.254H2.6875V469.353H266.835C307.629 469.353 340.845 436.197 340.845 395.427V360.216C340.845 297.715 391.77 246.849 454.342 246.849H627.683V266.02H454.342C402.252 266.02 360.038 308.196 360.038 360.216V395.427C360.038 446.842 318.309 488.524 266.835 488.524H2.6875V489.623H266.835C318.914 489.623 361.138 447.446 361.138 395.427V360.216C361.138 308.8 402.868 267.119 454.342 267.119H627.683V286.3H454.331C413.526 286.3 380.331 319.468 380.331 360.216V395.427C380.331 457.927 329.407 508.794 266.835 508.794H2.6875V509.892H266.835C330.012 509.892 381.431 458.532 381.431 395.427V360.216C381.431 320.072 414.141 287.399 454.331 287.399H627.683V306.57H454.331C424.711 306.57 400.624 330.641 400.624 360.216V395.427C400.635 469.111 340.603 529.074 266.835 529.074H2.6875V530.173H266.835C341.208 530.173 401.735 469.716 401.724 395.427V360.216C401.724 336.431 417.628 316.304 439.373 309.844V504.004C439.373 534.435 464.065 559.099 494.532 559.099H540.276C570.742 559.099 595.435 534.435 595.435 504.004V384.957C595.435 364.753 611.834 348.373 632.061 348.373C652.287 348.373 668.687 364.753 668.687 384.957V464.739C662.054 465.024 656.764 470.474 656.764 477.164C656.764 483.855 662.351 489.623 669.237 489.623C676.122 489.623 681.709 484.042 681.709 477.164C681.709 470.287 676.419 465.024 669.786 464.739V384.957C669.786 364.149 652.892 347.274 632.061 347.274C611.229 347.274 594.335 364.149 594.335 384.957V504.004C594.335 533.831 570.126 558.001 540.276 558.001H494.532C464.67 558.001 440.473 533.831 440.473 504.004V309.536C444.894 308.328 449.536 307.669 454.331 307.669H505.563C488.647 311.756 476.087 326.96 476.087 345.099C476.087 363.237 488.625 378.431 505.508 382.529H494.004C484.105 382.529 476.076 390.549 476.076 400.436V441.679C476.076 451.566 484.105 459.586 494.004 459.586H535.293C545.192 459.586 553.221 451.566 553.221 441.679V400.436C553.221 390.549 545.192 382.529 535.293 382.529H523.788C540.672 378.431 553.21 363.226 553.21 345.099C553.21 326.971 540.65 311.756 523.733 307.669H703.575V508.497H628.706C628.398 508.497 628.156 508.739 628.156 509.046V666.094C628.156 666.391 628.398 666.644 628.706 666.644H785.934C786.077 666.644 786.22 666.578 786.319 666.479C786.418 666.38 786.484 666.237 786.484 666.094V509.046C786.484 508.761 786.264 508.541 786 508.508V306.57H628.772V150.621H786.143V234.138C786.143 308.427 846.658 368.884 921.043 368.873H956.283C985.111 368.873 1008.58 392.153 1008.88 420.882H987.652C984.781 402.425 968.811 388.308 949.541 388.308C928.236 388.308 910.968 405.556 910.968 426.836V461.498H875.024V426.836C875.024 405.556 857.756 388.308 836.451 388.308C815.146 388.308 797.878 405.556 797.878 426.836V540.5C797.878 558.627 810.417 573.832 827.3 577.93H787.155V579.028H987.553V577.93H958.681C975.564 573.832 988.103 558.627 988.103 540.5V503.202H1090.15C1089.94 523.878 1073.09 540.599 1052.32 540.599C1031.56 540.599 1013.39 558.012 1013.39 579.49V590.18C1013.39 617.568 1035.62 639.76 1063.03 639.76H1108.02C1138.49 639.76 1163.18 615.096 1163.18 584.664V554.694C1169.49 554.079 1174.43 548.761 1174.43 542.302C1174.43 535.424 1168.85 529.843 1161.96 529.843C1155.08 529.843 1149.49 535.424 1149.49 542.302C1149.49 549.179 1155.08 554.76 1161.96 554.76C1162 554.76 1162.05 554.76 1162.08 554.76V584.675C1162.08 614.503 1137.87 638.673 1108.02 638.673H1063.03C1036.22 638.673 1014.49 616.964 1014.49 590.191V579.501C1014.49 558.627 1031.43 541.708 1052.32 541.708C1073.22 541.708 1091.04 524.504 1091.25 503.213H1196.06V659.711C1196.06 660.019 1196.3 660.261 1196.61 660.261H1353.83C1354.14 660.261 1354.38 660.019 1354.38 659.711V636.827H1354.48V398.734C1354.48 369.148 1330.4 345.088 1300.78 345.088H1265.54C1191.76 345.088 1131.75 285.147 1131.75 211.451V38.2864H1150.93V211.44C1150.93 274.545 1202.34 325.906 1265.53 325.906H1300.77C1340.98 325.906 1373.68 358.59 1373.68 398.734V662.579H1374.78V398.734C1374.78 357.975 1341.58 324.807 1300.77 324.807H1265.53C1202.95 324.807 1152.03 273.941 1152.03 211.44V38.2864H1171.22V211.44C1171.22 263.46 1213.45 305.636 1265.53 305.636H1300.77C1352.24 305.636 1393.97 347.318 1393.97 398.734V662.579H1395.07V398.734C1395.07 346.703 1352.84 304.538 1300.77 304.538H1265.53C1214.05 304.538 1172.32 262.856 1172.32 211.44V38.2864H1191.53V211.451C1191.53 252.21 1224.72 285.367 1265.53 285.367H1300.77C1363.35 285.367 1414.26 336.233 1414.26 398.734V662.579H1415.36V398.734C1415.36 335.618 1363.95 284.268 1300.77 284.268H1265.53C1225.34 284.268 1192.63 251.595 1192.63 211.451V38.2864H1211.82V211.451C1211.82 241.037 1235.91 265.097 1265.53 265.097H1300.77C1374.55 265.086 1434.57 325.038 1434.57 398.734V662.579H1435.67V398.734C1435.67 324.434 1375.14 263.987 1300.77 263.998L1300.78 263.987ZM1382.61 -14.5903C1388.89 -14.5903 1393.98 -9.50369 1393.98 -3.23055C1393.98 3.04258 1388.89 8.12921 1382.61 8.12921C1376.33 8.12921 1371.55 3.33922 1371.27 -2.68124H1383.47V-3.77986H1371.27C1371.55 -9.80032 1376.51 -14.5903 1382.61 -14.5903ZM1326.44 60.2918C1332.32 60.2918 1337.16 64.7632 1337.75 70.487H1315.13C1315.71 64.7632 1320.55 60.2918 1326.45 60.2918H1326.44ZM1337.81 71.6516C1337.81 77.9247 1332.72 83.0113 1326.44 83.0113C1320.16 83.0113 1315.06 77.9247 1315.06 71.6516C1315.06 71.6296 1315.06 71.6076 1315.06 71.5857H1337.8C1337.8 71.5857 1337.8 71.6296 1337.8 71.6516H1337.81ZM680.609 477.153C680.609 483.426 675.517 488.513 669.237 488.513C662.956 488.513 657.864 483.426 657.864 477.153C657.864 470.88 662.659 466.112 668.687 465.826V477.999H669.786V465.826C675.814 466.112 680.609 471.067 680.609 477.153ZM401.152 112.092C401.152 91.4158 417.925 74.6618 438.625 74.6618C459.324 74.6618 476.076 91.4048 476.098 112.059C476.098 112.059 476.098 112.059 476.098 112.07C476.098 112.07 476.098 112.092 476.098 112.103C476.098 132.768 459.313 149.522 438.625 149.522C417.936 149.522 401.152 132.768 401.152 112.092ZM477.198 112.092C477.198 112.092 477.198 112.07 477.198 112.059C477.198 91.3938 493.982 74.6398 514.67 74.6398C535.359 74.6398 552.143 91.3938 552.143 112.07C552.143 132.746 535.37 149.5 514.67 149.5C493.971 149.5 477.22 132.757 477.198 112.103C477.198 112.103 477.198 112.103 477.198 112.092ZM522.656 31.1014C522.37 24.4767 516.914 19.1923 510.216 19.1923C503.518 19.1923 498.062 24.4767 497.776 31.1014H379.022V16.1052C379.022 -12.8764 402.615 -36.4419 431.629 -36.4419H581.818C564.814 -32.421 552.154 -17.1721 552.154 1.04309V31.1014H522.656ZM521.589 31.6507C521.589 37.9239 516.496 43.0105 510.216 43.0105C503.936 43.0105 498.843 37.9239 498.843 31.6507C498.843 25.3776 503.936 20.291 510.216 20.291C516.496 20.291 521.589 25.3776 521.589 31.6507ZM702.046 101.996C698.009 85.67 683.26 73.5632 665.662 73.5632C648.064 73.5632 633.314 85.67 629.278 101.996V9.85405C633.314 26.1796 648.064 38.2864 665.662 38.2864C683.26 38.2864 697.998 26.1796 702.046 9.85405V101.996ZM702.046 111.004C702.046 131.076 685.757 147.347 665.673 147.347C645.589 147.347 629.289 131.076 629.289 111.004C629.289 90.9324 645.578 74.6728 665.673 74.6728C685.768 74.6728 702.046 90.9434 702.046 111.004ZM629.289 0.845345C629.289 -19.2265 645.578 -35.4861 665.673 -35.4861C685.768 -35.4861 702.046 -19.2155 702.046 0.845345C702.046 20.9062 685.757 37.1878 665.673 37.1878C645.589 37.1878 629.289 20.9172 629.289 0.845345ZM702.046 -8.16336C698.262 -23.4452 685.097 -35.0247 668.995 -36.4419H702.046V-8.16336ZM628.728 -5.46075C626.132 -20.7096 614.561 -32.9044 599.625 -36.4309H662.34C645.303 -34.9368 631.555 -22.0609 628.728 -5.46075ZM553.243 1.04309C553.243 -19.633 570.016 -36.387 590.716 -36.387C611.416 -36.387 628.189 -19.633 628.189 1.04309V112.07C628.189 132.746 611.416 149.5 590.716 149.5C570.016 149.5 553.243 132.746 553.243 112.07V1.04309ZM523.755 149.511C538.615 145.929 550.12 133.746 552.693 118.53C555.267 133.746 566.761 145.929 581.631 149.511H523.755ZM552.143 150.61V225.459H477.198V150.61H552.143ZM553.243 225.459V150.61H627.694V225.459H553.243ZM599.812 149.511C614.87 145.875 626.484 133.427 628.849 117.937C632.116 135.295 647.349 148.423 665.673 148.423C683.997 148.423 698.009 136.317 702.057 119.991V149.511H599.812ZM703.146 -36.4419H722.372V149.522H703.146V-36.4419ZM723.472 -36.4419H742.697V149.522H723.472V-36.4419ZM743.797 -36.4419H763.023V149.522H743.797V-36.4419ZM431.608 -37.5405C401.988 -37.5405 377.9 -13.4807 377.9 16.1052V51.3051C377.9 124.825 318.166 184.656 244.639 184.942V165.782C307.563 165.485 358.697 114.256 358.697 51.3161V16.1162C358.697 -24.0494 391.418 -56.7115 431.608 -56.7115H786.154V-37.5405H431.608ZM297.829 51.3161V16.1162C297.818 -57.5684 357.839 -117.213 431.619 -117.213H786.165V-57.7991H431.608C390.802 -57.7991 357.597 -24.6427 357.597 16.1272V51.3271C357.597 113.652 306.969 164.397 244.639 164.694V145.512C296.465 145.215 338.404 103.171 338.404 51.3271V16.1272C338.404 -35.2884 380.133 -76.9701 431.608 -76.9701H786.132V-78.0687H431.608C379.517 -78.0687 337.304 -35.8926 337.304 16.1272V51.3271C337.304 102.567 295.86 144.128 244.639 144.413V125.231C285.203 124.946 318.111 91.9102 318.111 51.3271V16.1272C318.111 -46.3735 369.024 -97.2397 431.608 -97.2397H786.132V-98.3383H431.608C368.419 -98.3383 317.011 -46.9887 317.011 16.1272V51.3271C317.011 91.295 284.587 123.847 244.639 124.133V104.962C274.017 104.676 297.818 80.7372 297.818 51.3271L297.829 51.3161ZM243.55 187.062C238.832 185.755 233.871 185.04 228.746 185.04H224.324V83.0992H238.7C240.338 83.0992 241.955 82.9893 243.55 82.7806V187.062ZM319.596 345.077C319.596 365.753 302.823 382.507 282.123 382.507C261.423 382.507 244.65 365.753 244.65 345.077C244.65 324.401 261.434 307.647 282.123 307.647C302.812 307.647 319.596 324.412 319.596 345.077ZM243.55 447.963H224.324V186.139H228.746C233.882 186.139 238.843 186.875 243.55 188.204V447.963ZM163.336 186.139H182.573V447.963H163.336V186.139ZM183.673 186.139H202.899V447.963H183.673V186.139ZM202.899 83.0992V185.04H183.673V83.0992H202.899ZM223.224 83.0992V185.04H203.998V83.0992H223.224ZM203.998 186.139H223.224V447.963H203.998V186.139ZM124.895 -105.798H238.689C259.377 -105.798 276.151 -89.044 276.151 -68.3679C276.151 -47.6918 259.377 -30.9378 238.689 -30.9378H124.895C104.195 -30.9378 87.4222 -47.6918 87.4222 -68.3679C87.4222 -89.044 104.195 -105.798 124.895 -105.798ZM87.4222 -59.2383C91.5248 -42.3745 106.747 -29.8502 124.895 -29.8502H202.888V6.05282H124.895C106.747 6.05282 91.5248 18.5771 87.4222 35.441V-59.2383ZM87.4222 44.5815C87.4222 23.9054 104.195 7.15144 124.895 7.15144H238.689C259.377 7.15144 276.151 23.9054 276.151 44.5815C276.151 65.2576 259.377 82.0116 238.689 82.0116H124.895C104.195 82.0116 87.4222 65.2576 87.4222 44.5815ZM182.562 83.1102V185.051H163.325V83.1102H182.562ZM26.6099 157.948C26.6099 131.175 48.3435 109.466 75.1586 109.466H85.8604C106.758 109.466 123.696 126.385 123.696 147.259C123.696 168.133 140.909 185.919 162.225 186.139V290.827H26.6099V157.948ZM162.225 291.925V447.875H6.09713V291.925H162.225ZM266.835 447.974H244.639V354.217C248.742 371.081 263.964 383.616 282.112 383.616C300.26 383.616 315.471 371.092 319.585 354.228C319.497 356.217 319.442 358.216 319.442 360.227V395.427C319.442 424.408 295.838 447.974 266.835 447.974ZM320.597 342.605C319.31 322.489 302.581 306.559 282.112 306.559C263.964 306.559 248.742 319.094 244.639 335.958V188.534C266.725 195.324 282.794 215.868 282.794 240.147V301.286H283.894V240.147C283.894 215.242 267.341 194.203 244.639 187.391V186.15H401.13C422.248 186.15 439.362 203.245 439.362 224.338V226.327C377.801 233.138 328.615 281.478 320.586 342.605H320.597ZM440.473 226.206V224.349C440.473 202.651 422.863 185.062 401.141 185.062H260.532C327.196 176.944 379 120.068 379 51.3271V32.211H497.754C498.04 38.8357 503.496 44.1201 510.194 44.1201C516.892 44.1201 522.348 38.8357 522.634 32.211H552.121V102.951C548.019 86.0875 532.796 73.5522 514.648 73.5522C495.543 73.5522 479.705 87.4168 476.626 105.621C473.546 87.4278 457.697 73.5632 438.603 73.5632C417.298 73.5632 400.03 90.8116 400.03 112.092C400.03 133.372 417.298 150.621 438.603 150.621C457.697 150.621 473.546 136.756 476.626 118.552C479.199 133.768 490.693 145.94 505.563 149.522H476.626C476.318 149.522 476.076 149.764 476.076 150.071V225.492H454.32C449.646 225.492 445.015 225.733 440.462 226.195L440.473 226.206ZM535.304 383.627C544.598 383.627 552.132 391.153 552.132 400.436V441.679C552.132 450.962 544.598 458.488 535.304 458.488H494.015C484.721 458.488 477.187 450.962 477.187 441.679V400.436C477.187 391.153 484.721 383.627 494.015 383.627H535.304ZM552.132 345.099C552.132 365.775 535.359 382.529 514.659 382.529C493.96 382.529 477.187 365.775 477.187 345.099C477.187 324.423 493.96 307.68 514.659 307.68C535.359 307.68 552.132 324.434 552.132 345.099ZM704.697 307.669H723.922V508.497H704.697V307.669ZM785.406 509.596V665.545H629.278V509.596H785.406ZM745.359 508.497V307.669H764.585V508.497H745.359ZM744.259 508.497H725.033V307.669H744.259V508.497ZM784.911 307.669V508.497H765.685V307.669H784.911ZM764.123 149.533V-36.4309H786.154V149.522H764.123V149.533ZM1161.98 553.672C1155.7 553.672 1150.61 548.586 1150.61 542.312C1150.61 536.039 1155.7 530.953 1161.98 530.953C1168.26 530.953 1173.36 536.039 1173.36 542.312C1173.36 548.168 1168.91 552.991 1163.2 553.606V541.159H1162.1V553.661C1162.1 553.661 1162.02 553.661 1161.98 553.661V553.672ZM1288.97 130.571C1288.97 121.287 1296.51 113.762 1305.8 113.762H1347.09C1356.39 113.762 1363.92 121.287 1363.92 130.571V171.813C1363.92 181.096 1356.39 188.622 1347.09 188.622H1305.8C1296.51 188.622 1288.97 181.096 1288.97 171.813V151.28C1288.97 151.28 1288.97 151.225 1288.97 151.192C1288.97 151.159 1288.97 151.137 1288.97 151.104V130.571ZM1250.4 113.762C1271.07 113.762 1287.82 130.472 1287.87 151.104V151.28C1287.83 171.912 1271.07 188.622 1250.4 188.622C1229.74 188.622 1212.93 171.868 1212.93 151.192C1212.93 130.516 1229.7 113.762 1250.4 113.762ZM1017.14 189.71C1037.83 189.71 1054.61 206.475 1054.61 227.14C1054.61 247.805 1037.84 264.57 1017.14 264.57C996.44 264.57 979.667 247.816 979.667 227.14C979.667 206.464 996.44 189.71 1017.14 189.71ZM1017.13 188.611C996.429 188.611 979.655 171.857 979.655 151.181C979.655 130.505 996.429 113.751 1017.13 113.751C1037.83 113.751 1054.6 130.505 1054.6 151.181C1054.6 171.857 1037.83 188.611 1017.13 188.611ZM1055.71 112.663V38.2974H1130.66V112.663H1055.71ZM1054.61 142.117C1051.03 127.275 1038.83 115.783 1023.6 113.212C1038.83 110.642 1051.03 99.1611 1054.61 84.3077V142.117ZM1054.61 -77.6732H868.447V-117.202H1054.61V-77.6732ZM1054.61 -76.5746V-57.3707H868.447V-76.5746H1054.61ZM1054.61 -56.2721V-37.0681H868.447V-56.2721H1054.61ZM1054.61 66.1475C1050.52 49.2507 1035.3 36.6934 1017.13 36.6934H905.975C887.739 36.6934 872.472 49.3385 868.447 66.3342V-35.9805H1054.61V66.1475ZM905.975 37.803H1017.13C1037.83 37.803 1054.6 54.557 1054.6 75.2331C1054.6 95.9092 1037.83 112.663 1017.13 112.663H905.975C885.275 112.663 868.502 95.9092 868.502 75.2331C868.502 54.557 885.275 37.803 905.975 37.803ZM1055.71 113.762H1130.66V188.611H1055.71V113.762ZM1055.71 37.1988V-117.202H1211.84V37.1878H1055.71V37.1988ZM1092.22 422.002C1090.91 426.715 1090.19 431.67 1090.19 436.801V441.206H988.136V426.858C988.136 425.21 988.026 423.595 987.817 422.002H1092.22ZM1353.42 461.52H1091.29V442.305H1353.42V461.52ZM1090.19 461.52H988.136V442.305H1090.19V461.52ZM988.136 462.618H1090.19V481.822H988.136V462.618ZM1091.29 462.618H1353.42V481.822H1091.29V462.618ZM1353.42 482.921V502.125H1091.29V482.921H1353.42ZM1353.32 503.224V659.173H1197.19V503.224H1353.32ZM1353.42 441.206H1091.29V436.801C1091.29 431.67 1092.03 426.704 1093.36 422.002H1353.42V441.206ZM799.011 540.522V426.858C799.011 406.182 815.784 389.428 836.484 389.428C857.184 389.428 873.957 406.182 873.957 426.858V540.522C873.957 561.198 857.184 577.952 836.484 577.952C815.784 577.952 799.011 561.198 799.011 540.522ZM845.624 577.952C862.507 573.854 875.046 558.649 875.046 540.522V462.618H910.99V540.522C910.99 558.649 923.529 573.854 940.412 577.952H845.613H845.624ZM949.563 577.952C928.863 577.952 912.09 561.198 912.09 540.522V426.858C912.09 406.182 928.863 389.428 949.563 389.428C970.263 389.428 987.036 406.182 987.036 426.858V540.522C987.036 561.198 970.263 577.952 949.563 577.952ZM988.136 482.921H1090.19V502.125H988.136V482.921ZM1300.81 346.197C1329.82 346.197 1353.42 369.763 1353.42 398.745V420.904H1259.56C1276.45 416.806 1289 401.601 1289 383.474C1289 365.346 1276.46 350.163 1259.59 346.055C1261.58 346.142 1263.57 346.197 1265.58 346.197H1300.82H1300.81ZM1250.41 420.904C1229.72 420.904 1212.94 404.15 1212.94 383.474C1212.94 362.798 1229.71 346.055 1250.41 346.055C1271.11 346.055 1287.89 362.809 1287.89 383.474C1287.89 404.139 1271.11 420.904 1250.41 420.904ZM1247.92 345.044C1227.78 346.329 1211.84 363.039 1211.84 383.474C1211.84 401.601 1224.38 416.806 1241.26 420.904H1093.67C1100.47 398.843 1121.03 382.803 1145.35 382.803H1211.84V381.705H1145.35C1120.42 381.705 1099.37 398.228 1092.53 420.904H1091.28V264.592C1091.28 243.498 1108.4 226.404 1129.51 226.404H1131.49C1138.31 287.893 1186.71 337.035 1247.91 345.055L1247.92 345.044ZM1131.37 225.305H1129.51C1107.79 225.305 1090.18 242.894 1090.18 264.592V405.062C1082.07 338.463 1025.12 286.707 956.294 286.707H921.054C892.039 286.707 868.447 263.131 868.447 234.16V151.741H915.159C915.444 158.366 920.9 163.65 927.598 163.65C934.296 163.65 940.071 158.069 940.071 151.192C940.071 144.314 934.483 138.733 927.598 138.733C920.713 138.733 915.444 144.018 915.159 150.643H868.447V84.1319C872.461 101.117 887.739 113.773 905.975 113.773H1007.99C991.105 117.871 978.556 133.076 978.556 151.203C978.556 170.286 992.447 186.106 1010.67 189.182C992.458 192.258 978.578 208.09 978.578 227.162C978.578 248.442 995.846 265.69 1017.15 265.69C1038.46 265.69 1055.72 248.442 1055.72 227.162C1055.72 208.079 1041.83 192.247 1023.61 189.182C1038.84 186.611 1051.03 175.131 1054.62 160.288V189.182C1054.62 189.49 1054.87 189.732 1055.17 189.732H1130.68V211.473C1130.68 216.142 1130.92 220.768 1131.38 225.316L1131.37 225.305ZM916.258 150.643C916.544 144.622 921.505 139.832 927.598 139.832C933.691 139.832 938.652 144.622 938.938 150.643H916.247H916.258ZM938.949 151.741C938.663 157.762 933.703 162.552 927.609 162.552C921.516 162.552 916.555 157.762 916.269 151.741H938.96H938.949Z" fill="url(#paint0_linear_1049_104171)"></path><path d="M665.57 228.59C665.57 249.87 682.838 267.119 704.143 267.119C725.448 267.119 742.716 249.87 742.716 228.59C742.716 207.31 725.448 190.061 704.143 190.061C682.838 190.061 665.57 207.31 665.57 228.59ZM741.616 228.59C741.616 249.266 724.843 266.02 704.143 266.02C683.443 266.02 666.67 249.266 666.67 228.59C666.67 207.914 683.443 191.16 704.143 191.16C724.843 191.16 741.616 207.925 741.616 228.59Z" fill="url(#paint1_linear_1049_104171)"></path><path d="M96.0884 195.356C74.7837 195.356 57.5156 212.605 57.5156 233.885C57.5156 255.165 74.7837 272.414 96.0884 272.414C117.393 272.414 134.661 255.165 134.661 233.885C134.661 212.605 117.382 195.356 96.0884 195.356ZM96.0884 271.315C75.3887 271.315 58.6155 254.561 58.6155 233.885C58.6155 213.209 75.3887 196.455 96.0884 196.455C116.788 196.455 133.561 213.22 133.561 233.885C133.561 254.55 116.777 271.315 96.0884 271.315Z" fill="url(#paint2_linear_1049_104171)"></path><path d="M948.527 420.882C941.642 420.882 936.055 426.463 936.055 433.34C936.055 440.218 941.642 445.799 948.527 445.799C955.413 445.799 961 440.229 961 433.34C961 426.452 955.413 420.882 948.527 420.882ZM948.527 444.7C942.247 444.7 937.155 439.613 937.155 433.34C937.155 427.067 942.247 421.98 948.527 421.98C954.808 421.98 959.9 427.067 959.9 433.34C959.9 439.613 954.808 444.7 948.527 444.7Z" fill="url(#paint3_linear_1049_104171)"></path><path d="M244.641 43.5707C244.641 36.6933 239.064 31.1123 232.168 31.1123C225.272 31.1123 219.695 36.6933 219.695 43.5707C219.695 50.4481 225.283 56.0291 232.168 56.0291C239.053 56.0291 244.641 50.4481 244.641 43.5707ZM232.168 54.9305C225.888 54.9305 220.795 49.8438 220.795 43.5707C220.795 37.2976 225.888 32.211 232.168 32.211C238.448 32.211 243.541 37.2976 243.541 43.5707C243.541 49.8438 238.448 54.9305 232.168 54.9305Z" fill="url(#paint4_linear_1049_104171)"></path><path d="M1017.07 138.722C1010.19 138.722 1004.6 144.303 1004.6 151.181C1004.6 158.058 1010.19 163.639 1017.07 163.639C1023.96 163.639 1029.55 158.058 1029.55 151.181C1029.55 144.303 1023.96 138.722 1017.07 138.722ZM1017.07 162.541C1010.79 162.541 1005.7 157.454 1005.7 151.181C1005.7 144.908 1010.79 139.821 1017.07 139.821C1023.35 139.821 1028.45 144.908 1028.45 151.181C1028.45 157.454 1023.35 162.541 1017.07 162.541Z" fill="url(#paint5_linear_1049_104171)"></path><path d="M1274.79 593.64C1281.67 593.64 1287.26 588.059 1287.26 581.182C1287.26 574.304 1281.67 568.723 1274.79 568.723C1267.9 568.723 1262.31 574.293 1262.31 581.182C1262.31 588.07 1267.9 593.64 1274.79 593.64ZM1274.79 569.822C1281.07 569.822 1286.16 574.909 1286.16 581.182C1286.16 587.455 1281.07 592.542 1274.79 592.542C1268.5 592.542 1263.41 587.455 1263.41 581.182C1263.41 574.909 1268.5 569.822 1274.79 569.822Z" fill="url(#paint6_linear_1049_104171)"></path><path d="M84.1679 381.914C91.0532 381.914 96.6406 376.333 96.6406 369.455C96.6406 362.578 91.0532 356.997 84.1679 356.997C77.2827 356.997 71.6953 362.567 71.6953 369.455C71.6953 376.344 77.2827 381.914 84.1679 381.914ZM84.1679 358.096C90.4483 358.096 95.5407 363.182 95.5407 369.455C95.5407 375.728 90.4483 380.815 84.1679 380.815C77.8876 380.815 72.7952 375.728 72.7952 369.455C72.7952 363.182 77.8876 358.096 84.1679 358.096Z" fill="url(#paint7_linear_1049_104171)"></path><path d="M707.34 599.573C714.225 599.573 719.812 593.992 719.812 587.115C719.812 580.237 714.225 574.656 707.34 574.656C700.455 574.656 694.867 580.237 694.867 587.115C694.867 593.992 700.455 599.573 707.34 599.573ZM707.34 575.755C713.62 575.755 718.713 580.841 718.713 587.115C718.713 593.388 713.62 598.474 707.34 598.474C701.059 598.474 695.967 593.388 695.967 587.115C695.967 580.841 701.059 575.755 707.34 575.755Z" fill="url(#paint8_linear_1049_104171)"></path><path d="M836.465 420.882C829.58 420.882 823.992 426.463 823.992 433.34C823.992 440.218 829.58 445.799 836.465 445.799C843.35 445.799 848.938 440.229 848.938 433.34C848.938 426.452 843.35 420.882 836.465 420.882ZM836.465 444.7C830.185 444.7 825.092 439.613 825.092 433.34C825.092 427.067 830.185 421.98 836.465 421.98C842.745 421.98 847.838 427.067 847.838 433.34C847.838 439.613 842.745 444.7 836.465 444.7Z" fill="url(#paint9_linear_1049_104171)"></path><path d="M232.168 -55.9096C239.064 -55.9096 244.641 -61.4906 244.641 -68.3679C244.641 -75.2453 239.064 -80.8263 232.168 -80.8263C225.272 -80.8263 219.695 -75.2453 219.695 -68.3679C219.695 -61.4906 225.283 -55.9096 232.168 -55.9096ZM232.168 -79.7277C238.448 -79.7277 243.541 -74.6411 243.541 -68.3679C243.541 -62.0948 238.448 -57.0082 232.168 -57.0082C225.888 -57.0082 220.795 -62.0948 220.795 -68.3679C220.795 -74.6411 225.888 -79.7277 232.168 -79.7277Z" fill="url(#paint10_linear_1049_104171)"></path><path d="M1375.06 253.199C1375.06 260.076 1380.65 265.657 1387.54 265.657C1394.42 265.657 1400.01 260.076 1400.01 253.199C1400.01 246.321 1394.42 240.74 1387.54 240.74C1380.65 240.74 1375.06 246.321 1375.06 253.199ZM1398.91 253.199C1398.91 259.472 1393.82 264.559 1387.54 264.559C1381.25 264.559 1376.16 259.472 1376.16 253.199C1376.16 246.926 1381.25 241.839 1387.54 241.839C1393.82 241.839 1398.91 246.926 1398.91 253.199Z" fill="url(#paint11_linear_1049_104171)"></path><path d="M412.527 494.534C419.413 494.534 425 488.953 425 482.075C425 475.198 419.413 469.617 412.527 469.617C405.642 469.617 400.055 475.198 400.055 482.075C400.055 488.953 405.642 494.534 412.527 494.534ZM412.527 470.715C418.808 470.715 423.9 475.802 423.9 482.075C423.9 488.348 418.808 493.435 412.527 493.435C406.247 493.435 401.155 488.348 401.155 482.075C401.155 475.802 406.247 470.715 412.527 470.715Z" fill="url(#paint12_linear_1049_104171)"></path><path d="M412.527 556.364C419.413 556.364 425 550.783 425 543.906C425 537.028 419.413 531.447 412.527 531.447C405.642 531.447 400.055 537.028 400.055 543.906C400.055 550.783 405.642 556.364 412.527 556.364ZM412.527 532.546C418.808 532.546 423.9 537.633 423.9 543.906C423.9 550.179 418.808 555.266 412.527 555.266C406.247 555.266 401.155 550.179 401.155 543.906C401.155 537.633 406.247 532.546 412.527 532.546Z" fill="url(#paint13_linear_1049_104171)"></path><path d="M216.469 543.906C216.469 537.028 210.881 531.447 203.996 531.447C197.111 531.447 191.523 537.028 191.523 543.906C191.523 550.783 197.111 556.364 203.996 556.364C210.881 556.364 216.469 550.783 216.469 543.906ZM192.623 543.906C192.623 537.633 197.716 532.546 203.996 532.546C210.276 532.546 215.369 537.633 215.369 543.906C215.369 550.179 210.276 555.266 203.996 555.266C197.716 555.266 192.623 550.179 192.623 543.906Z" fill="url(#paint14_linear_1049_104171)"></path><path d="M1121.85 337.683C1114.96 337.683 1109.38 343.264 1109.38 350.141C1109.38 357.019 1114.96 362.6 1121.85 362.6C1128.73 362.6 1134.32 357.03 1134.32 350.141C1134.32 343.253 1128.73 337.683 1121.85 337.683ZM1121.85 361.501C1115.57 361.501 1110.47 356.414 1110.47 350.141C1110.47 343.868 1115.57 338.782 1121.85 338.782C1128.13 338.782 1133.22 343.868 1133.22 350.141C1133.22 356.414 1128.13 361.501 1121.85 361.501Z" fill="url(#paint15_linear_1049_104171)"></path><path d="M315.457 204.222C308.572 204.222 302.984 209.803 302.984 216.681C302.984 223.558 308.572 229.139 315.457 229.139C322.342 229.139 327.93 223.558 327.93 216.681C327.93 209.803 322.342 204.222 315.457 204.222ZM315.457 228.04C309.177 228.04 304.084 222.954 304.084 216.681C304.084 210.407 309.177 205.321 315.457 205.321C321.737 205.321 326.83 210.407 326.83 216.681C326.83 222.954 321.737 228.04 315.457 228.04Z" fill="url(#paint16_linear_1049_104171)"></path><path d="M987.578 638.849H787.18V639.947H987.578V638.849Z" fill="url(#paint17_linear_1049_104171)"></path><path d="M627.496 638.849H2.6875V639.947H627.496V638.849Z" fill="url(#paint18_linear_1049_104171)"></path><path d="M26.4358 -106.347H25.3359V82.5609H26.4358V-106.347Z" fill="url(#paint19_linear_1049_104171)"></path><path d="M987.578 618.535H787.18V619.634H987.578V618.535Z" fill="url(#paint20_linear_1049_104171)"></path><path d="M627.496 618.535H2.6875V619.634H627.496V618.535Z" fill="url(#paint21_linear_1049_104171)"></path><path d="M46.7561 -106.347H45.6562V82.5609H46.7561V-106.347Z" fill="url(#paint22_linear_1049_104171)"></path><path d="M987.578 598.233H787.18V599.331H987.578V598.233Z" fill="url(#paint23_linear_1049_104171)"></path><path d="M627.496 598.233H2.6875V599.331H627.496V598.233Z" fill="url(#paint24_linear_1049_104171)"></path><path d="M67.0843 -106.347H65.9844V82.5609H67.0843V-106.347Z" fill="url(#paint25_linear_1049_104171)"></path><path d="M627.496 577.93H2.6875V579.029H627.496V577.93Z" fill="url(#paint26_linear_1049_104171)"></path></g><defs><linearGradient id="paint0_linear_1049_104171" x1="-25.9153" y1="-4.29057" x2="942.206" y2="200.765" gradientUnits="userSpaceOnUse"><stop offset="0.251609" stop-color="#737DFF"></stop><stop offset="0.860127" stop-color="#3843D0"></stop></linearGradient><linearGradient id="paint1_linear_1049_104171" x1="-25.9153" y1="-4.29057" x2="942.206" y2="200.765" gradientUnits="userSpaceOnUse"><stop offset="0.251609" stop-color="#737DFF"></stop><stop offset="0.860127" stop-color="#3843D0"></stop></linearGradient><linearGradient id="paint2_linear_1049_104171" x1="-25.9153" y1="-4.29057" x2="942.206" y2="200.765" gradientUnits="userSpaceOnUse"><stop offset="0.251609" stop-color="#737DFF"></stop><stop offset="0.860127" stop-color="#3843D0"></stop></linearGradient><linearGradient id="paint3_linear_1049_104171" x1="-25.9153" y1="-4.29057" x2="942.206" y2="200.765" gradientUnits="userSpaceOnUse"><stop offset="0.251609" stop-color="#737DFF"></stop><stop offset="0.860127" stop-color="#3843D0"></stop></linearGradient><linearGradient id="paint4_linear_1049_104171" x1="-25.9153" y1="-4.29057" x2="942.206" y2="200.765" gradientUnits="userSpaceOnUse"><stop offset="0.251609" stop-color="#737DFF"></stop><stop offset="0.860127" stop-color="#3843D0"></stop></linearGradient><linearGradient id="paint5_linear_1049_104171" x1="-25.9153" y1="-4.29057" x2="942.206" y2="200.765" gradientUnits="userSpaceOnUse"><stop offset="0.251609" stop-color="#737DFF"></stop><stop offset="0.860127" stop-color="#3843D0"></stop></linearGradient><linearGradient id="paint6_linear_1049_104171" x1="-25.9153" y1="-4.29057" x2="942.206" y2="200.765" gradientUnits="userSpaceOnUse"><stop offset="0.251609" stop-color="#737DFF"></stop><stop offset="0.860127" stop-color="#3843D0"></stop></linearGradient><linearGradient id="paint7_linear_1049_104171" x1="-25.9153" y1="-4.29057" x2="942.206" y2="200.765" gradientUnits="userSpaceOnUse"><stop offset="0.251609" stop-color="#737DFF"></stop><stop offset="0.860127" stop-color="#3843D0"></stop></linearGradient><linearGradient id="paint8_linear_1049_104171" x1="-25.9153" y1="-4.29057" x2="942.206" y2="200.765" gradientUnits="userSpaceOnUse"><stop offset="0.251609" stop-color="#737DFF"></stop><stop offset="0.860127" stop-color="#3843D0"></stop></linearGradient><linearGradient id="paint9_linear_1049_104171" x1="-25.9153" y1="-4.29057" x2="942.206" y2="200.765" gradientUnits="userSpaceOnUse"><stop offset="0.251609" stop-color="#737DFF"></stop><stop offset="0.860127" stop-color="#3843D0"></stop></linearGradient><linearGradient id="paint10_linear_1049_104171" x1="-25.9153" y1="-4.29057" x2="942.206" y2="200.765" gradientUnits="userSpaceOnUse"><stop offset="0.251609" stop-color="#737DFF"></stop><stop offset="0.860127" stop-color="#3843D0"></stop></linearGradient><linearGradient id="paint11_linear_1049_104171" x1="-25.9153" y1="-4.29057" x2="942.206" y2="200.765" gradientUnits="userSpaceOnUse"><stop offset="0.251609" stop-color="#737DFF"></stop><stop offset="0.860127" stop-color="#3843D0"></stop></linearGradient><linearGradient id="paint12_linear_1049_104171" x1="-25.9153" y1="-4.29057" x2="942.206" y2="200.765" gradientUnits="userSpaceOnUse"><stop offset="0.251609" stop-color="#737DFF"></stop><stop offset="0.860127" stop-color="#3843D0"></stop></linearGradient><linearGradient id="paint13_linear_1049_104171" x1="-25.9153" y1="-4.29057" x2="942.206" y2="200.765" gradientUnits="userSpaceOnUse"><stop offset="0.251609" stop-color="#737DFF"></stop><stop offset="0.860127" stop-color="#3843D0"></stop></linearGradient><linearGradient id="paint14_linear_1049_104171" x1="-25.9153" y1="-4.29057" x2="942.206" y2="200.765" gradientUnits="userSpaceOnUse"><stop offset="0.251609" stop-color="#737DFF"></stop><stop offset="0.860127" stop-color="#3843D0"></stop></linearGradient><linearGradient id="paint15_linear_1049_104171" x1="-25.9153" y1="-4.29057" x2="942.206" y2="200.765" gradientUnits="userSpaceOnUse"><stop offset="0.251609" stop-color="#737DFF"></stop><stop offset="0.860127" stop-color="#3843D0"></stop></linearGradient><linearGradient id="paint16_linear_1049_104171" x1="-25.9153" y1="-4.29057" x2="942.206" y2="200.765" gradientUnits="userSpaceOnUse"><stop offset="0.251609" stop-color="#737DFF"></stop><stop offset="0.860127" stop-color="#3843D0"></stop></linearGradient><linearGradient id="paint17_linear_1049_104171" x1="-25.9153" y1="-4.29057" x2="942.206" y2="200.765" gradientUnits="userSpaceOnUse"><stop offset="0.251609" stop-color="#737DFF"></stop><stop offset="0.860127" stop-color="#3843D0"></stop></linearGradient><linearGradient id="paint18_linear_1049_104171" x1="-25.9153" y1="-4.29057" x2="942.206" y2="200.765" gradientUnits="userSpaceOnUse"><stop offset="0.251609" stop-color="#737DFF"></stop><stop offset="0.860127" stop-color="#3843D0"></stop></linearGradient><linearGradient id="paint19_linear_1049_104171" x1="-25.9153" y1="-4.29057" x2="942.206" y2="200.765" gradientUnits="userSpaceOnUse"><stop offset="0.251609" stop-color="#737DFF"></stop><stop offset="0.860127" stop-color="#3843D0"></stop></linearGradient><linearGradient id="paint20_linear_1049_104171" x1="-25.9153" y1="-4.29057" x2="942.206" y2="200.765" gradientUnits="userSpaceOnUse"><stop offset="0.251609" stop-color="#737DFF"></stop><stop offset="0.860127" stop-color="#3843D0"></stop></linearGradient><linearGradient id="paint21_linear_1049_104171" x1="-25.9153" y1="-4.29057" x2="942.206" y2="200.765" gradientUnits="userSpaceOnUse"><stop offset="0.251609" stop-color="#737DFF"></stop><stop offset="0.860127" stop-color="#3843D0"></stop></linearGradient><linearGradient id="paint22_linear_1049_104171" x1="-25.9153" y1="-4.29057" x2="942.206" y2="200.765" gradientUnits="userSpaceOnUse"><stop offset="0.251609" stop-color="#737DFF"></stop><stop offset="0.860127" stop-color="#3843D0"></stop></linearGradient><linearGradient id="paint23_linear_1049_104171" x1="-25.9153" y1="-4.29057" x2="942.206" y2="200.765" gradientUnits="userSpaceOnUse"><stop offset="0.251609" stop-color="#737DFF"></stop><stop offset="0.860127" stop-color="#3843D0"></stop></linearGradient><linearGradient id="paint24_linear_1049_104171" x1="-25.9153" y1="-4.29057" x2="942.206" y2="200.765" gradientUnits="userSpaceOnUse"><stop offset="0.251609" stop-color="#737DFF"></stop><stop offset="0.860127" stop-color="#3843D0"></stop></linearGradient><linearGradient id="paint25_linear_1049_104171" x1="-25.9153" y1="-4.29057" x2="942.206" y2="200.765" gradientUnits="userSpaceOnUse"><stop offset="0.251609" stop-color="#737DFF"></stop><stop offset="0.860127" stop-color="#3843D0"></stop></linearGradient><linearGradient id="paint26_linear_1049_104171" x1="-25.9153" y1="-4.29057" x2="942.206" y2="200.765" gradientUnits="userSpaceOnUse"><stop offset="0.251609" stop-color="#737DFF"></stop><stop offset="0.860127" stop-color="#3843D0"></stop></linearGradient></defs></svg>